<svg xmlns="http://www.w3.org/2000/svg" width="64" height="64" viewBox="0 0 64 64" fill="none">
  <defs>
    <linearGradient id="gold" x1="12" y1="12" x2="52" y2="52" gradientUnits="userSpaceOnUse">
      <stop stop-color="#E4BE67" />
      <stop offset="0.5" stop-color="#D4A84B" />
      <stop offset="1" stop-color="#B8923F" />
    </linearGradient>
    <linearGradient id="shine" x1="14" y1="10" x2="50" y2="32" gradientUnits="userSpaceOnUse">
      <stop stop-color="white" stop-opacity="0.35" />
      <stop offset="1" stop-color="white" stop-opacity="0" />
    </linearGradient>
  </defs>

  <rect x="6" y="6" width="52" height="52" rx="14" fill="url(#gold)" />
  <path d="M16 18c10 6 22 6 32 0" stroke="url(#shine)" stroke-width="3" stroke-linecap="round" />

  <g transform="translate(14 14) scale(1.5)" stroke="#1A1A1A" stroke-width="2" stroke-linecap="round" stroke-linejoin="round">
    <path d="M3 2v7c0 1.1.9 2 2 2h4a2 2 0 0 0 2-2V2" />
    <path d="M7 2v20" />
    <path d="M21 15V2a5 5 0 0 0-5 5v6c0 1.1.9 2 2 2h3Zm0 0v7" />
  </g>
</svg>

